<?xml version="1.0" encoding="utf-8"?>
<!-- Generator: Adobe Illustrator 21.0.2, SVG Export Plug-In . SVG Version: 6.00 Build 0)  -->
<svg version="1.1" id="Layer_1" xmlns="http://www.w3.org/2000/svg" xmlns:xlink="http://www.w3.org/1999/xlink" x="0px" y="0px"
	 viewBox="0 0 109 147.8" style="enable-background:new 0 0 109 147.8;" xml:space="preserve">
<style type="text/css">
	.st0{fill:#0F1E44;}
</style>
<path id="arm" class="st0" d="M10,147.8c0,0,19.2-27.8,40.2-23.8c0,0,11.2-21.2,26.8-12.5c0,0,8.2-50.2,15.5-52.8c0,0,6-7.2,13.8-4
	l1.2,0.5l1.5-4.8c0,0-6.8-0.8-8-1.8s-10.5,2.5-10.5,2.5s0.2-4.2,8-12.2c0,0,6.2-15.5,10.5-10.8v-6.8c0,0-8.8,7-13.2,7.2
	c0,0-4.8,15.2-9.8,13.2c0,0-3.5-24.5,9-38.7L92,0c0,0-8.2,5.8-12.5,39c0,0-5-2.8-4.8-20.2c0,0,0-11.5-4.8-11.7
	c-4.8-0.3,0.5,29.7,5.8,39.7c0,0-6.7-1.9-10.8-1.8c-2.1,0.1-7-6-7-6l-2.8,3c0,0,8.5,9.5,10.8,9.8s12.5,2.2,13.8,11
	c0,0-3.5,8-3.5,22.5c0,0-2.5,11-9.8,13.2c0,0-13.8-2.5-14.2,8.2c0,0-16.8,9.5-18.5,9.5s-4.2-4.5-4.2-4.5s-12.5,9.8-14,9.8
	s-12.8-0.2-15.5-2c0,0,3.8,4.2,1.2,12.8C1.2,132.2,10.2,136.8,10,147.8z"/>
</svg>
