<?xml version="1.0" encoding="utf-8"?>
<!-- Generator: Adobe Illustrator 21.0.2, SVG Export Plug-In . SVG Version: 6.00 Build 0)  -->
<svg version="1.1" id="Layer_1" xmlns="http://www.w3.org/2000/svg" xmlns:xlink="http://www.w3.org/1999/xlink" x="0px" y="0px"
	 viewBox="0 0 129.3 244.5" style="enable-background:new 0 0 129.3 244.5;" xml:space="preserve">
<style type="text/css">
	.st0{fill:url(#SVGID_1_);}
	.st1{fill:#FFFFFF;}
	.st2{fill:none;stroke:#841515;stroke-miterlimit:10;}
	.st3{fill:#4A9B34;stroke:#000000;stroke-width:0.25;stroke-miterlimit:10;}
	.st4{fill:#35511D;stroke:#000000;stroke-width:0.25;stroke-miterlimit:10;}
	.st5{fill:#CE3A35;}
	.st6{fill:#444343;}
	.st7{fill:url(#SVGID_2_);}
	.st8{fill:none;stroke:#DBAF33;stroke-miterlimit:10;}
	.st9{font-family:'Noteworthy-Light';}
	.st10{font-size:12.0943px;}
	.st11{font-size:11.3941px;}
	.st12{font-family:'Noteworthy-Bold';}
	.st13{font-size:12.3436px;}
</style>
<g id="Card1">
	
		<radialGradient id="SVGID_1_" cx="62.7347" cy="50.27" r="35.8357" gradientTransform="matrix(1.0327 0 0 1.0192 -0.12 -9.763483e-02)" gradientUnits="userSpaceOnUse">
		<stop  offset="0" style="stop-color:#FF5115"/>
		<stop  offset="1" style="stop-color:#7D0000"/>
	</radialGradient>
	<rect x="57.2" y="0" class="st0" width="14.9" height="102.3"/>
	<ellipse class="st1" cx="64.7" cy="182" rx="64.7" ry="62.5"/>
	<path class="st2" d="M64.7,239.4c-32.8,0-59.5-25.7-59.5-57.4c0-31.7,26.7-57.4,59.5-57.4s59.5,25.7,59.5,57.4
		C124.2,213.7,97.5,239.4,64.7,239.4z"/>
	<g id="leaf1">
		<path class="st3" d="M77.6,147.2c0,0,2.8,0.2,2.6,1.9c0,0,3.4-3.1,7.9,0c0,0,4.6-3.9,7.4-0.9c0,0,4.3-7.6,8.4-4.3
			c0,0-1.1-6.3,4.6-5c0,0-3.6-5.8,4.2-11.5c0,0-10.2-0.4-10.8-6.4c0,0-2.1,4.1-7.6,0c0,0-3.1,2.6-7.9,1.3c0,0-3.5,5.6-7.9,3.1
			c0,0,1,4.6-4.3,4.2c0,0,1.7,7.1-2.9,5.4c0,0,2.8,5.8,0.9,6.1c-1.9,0.3-4,2.2-4,2.2l4.8-1.4C73,141.9,80,145.1,77.6,147.2z"/>
		<path class="st4" d="M72.2,137.2l6.7-5v3.4l5.4-5.2v2.5l3.5-1.2l-2.5,4.2l5.2-8.7l1.1,3.7c0,0,6.5-3.4,6.9-5.3
			c0.3-1.9-1.3,4.8-1.3,4.8l8.1-1.4l-7.7,3.9l4.8,3.7l-7.8-1.9l6.7,4.3L88,137.5c0,0,7.1,2.5,6.9,3.4c-0.2,0.8-12.7-2.2-13.9,0
			c0,0,4.1,2,4.1,3.2c0,1.2-7.1-0.7-7.2,1.2l-4.8-3.4l-4.8,1.4l4-2.2C72.1,141.1,72.1,141.1,72.2,137.2z"/>
	</g>
	<g id="leaf3">
		<path class="st3" d="M56.9,133.5c0,0-1.9-1.8-0.5-3.3c0,0-4.9,0.8-5.9-4.8c0,0-6.5,0.9-6.2-3.6c0,0-9.1,4.5-9.7-1
			c0,0-4.1,6.6-7.4,1.9c0,0-1.9,7.6-12.1,8.3c0,0,7.2,6.5,3.1,12.5c0,0,4.7-2.6,5.6,4.6c0,0,4.3-0.6,6.9,3.6c0,0,7-3.2,8.3,1.8
			c0,0,2.8-4.9,6.5-1.4c0,0,4.3-7.7,6.4-3.3c0,0,2.5-7.1,4.1-6.3c1.7,0.8,4.7,0.3,4.7,0.3l-4.6-1.6C56.3,141.2,53.6,134,56.9,133.5z
			"/>
		<path class="st4" d="M53.2,146.1l-8.8,0.7l2.6-3.2l-8.1,1.6l1.9-2.3l-3.5-1l5.2-2.5l-10.7,5l2.1-4.2c0,0-7.5-0.7-9.2,0.8
			s4.7-3.7,4.7-3.7l-7.1-3.5l8.8,1l-0.7-6.4l4.4,6.4l-1.6-8.1l8.4,9.6c0,0-3.3-6.6-2.5-7.3c0.8-0.7,7.8,9.7,10.4,8.4
			c0,0-1.5-4.4-0.6-5.5c0.9-1.1,4.7,4.9,6.3,3.3l1,6.1l4.6,1.6l-4.7-0.3C56.3,142.6,56.3,142.6,53.2,146.1z"/>
	</g>
	<g id="leaf2">
		<path class="st3" d="M72.8,133.9c0,0,1.4-2.7,3.5-1.6c0,0-2.6-5.1,3.3-7.9c0,0-3.2-6.7,1.8-7.9c0,0-8.2-8.3-2.2-10.7
			c0,0-8.8-2.3-4.7-7.3c0,0-9.1,0.5-13.5-10.3c0,0-4.8,9.9-12.9,7.4c0,0,4.5,4.2-3.1,7.5c0,0,2.1,4.5-1.6,8.6c0,0,5.9,6.5,0.9,9.6
			c0,0,6.5,1.4,3.8,6.5c0,0,10.1,2.1,6,5.8c0,0,8.7,0.3,8.4,2.4s1.3,5.1,1.3,5.1l0.2-5.5C64,135.8,71.1,130.4,72.8,133.9z"/>
		<path class="st4" d="M57.4,134.1l-3.8-9.3l4.5,1.8l-4.6-8.2l3.3,1.3l-0.1-4.1l4.5,4.8l-9.2-9.8l5.4,0.9c0,0-1.8-8.3-4.1-9.7
			s5.7,3.9,5.7,3.9l1.5-8.8l2,9.8l6.9-2.8l-5.7,6.8l8.4-4.3l-7.8,12.2c0,0,6.3-5.7,7.3-5.1c1,0.6-8.2,11.5-5.7,13.9c0,0,4.4-3,6-2.4
			s-3.9,6.7-1.4,7.8l-6.4,3l-0.2,5.5l-1.3-5.1C62.5,136.2,62.5,136.2,57.4,134.1z"/>
	</g>
	<g>
		<ellipse class="st5" cx="64.7" cy="149.5" rx="7.4" ry="6.2"/>
		<ellipse class="st5" cx="55" cy="143.4" rx="7.4" ry="6.2"/>
		<ellipse class="st5" cx="72.1" cy="141.3" rx="7.4" ry="6.2"/>
		<path class="st6" d="M69.4,153.3c0.2,0.3-0.1,1-0.7,1.5c-0.6,0.5-1.4,0.7-1.6,0.4s0.1-1,0.7-1.5C68.5,153.2,69.2,153,69.4,153.3z"
			/>
		<path class="st6" d="M60.1,145.9c0.2,0.3-0.1,1-0.7,1.5s-1.4,0.7-1.6,0.4c-0.2-0.3,0.1-1,0.7-1.5
			C59.2,145.8,59.9,145.6,60.1,145.9z"/>
		<path class="st6" d="M68.6,146.4c-0.3,0.2-1-0.1-1.5-0.7c-0.5-0.6-0.7-1.3-0.4-1.6s1,0.1,1.5,0.7S68.9,146.2,68.6,146.4z"/>
		
			<radialGradient id="SVGID_2_" cx="59.1305" cy="0.1034" r="0" gradientTransform="matrix(1.0327 0 0 1.0192 -0.12 -9.763483e-02)" gradientUnits="userSpaceOnUse">
			<stop  offset="0" style="stop-color:#FF5115"/>
			<stop  offset="1" style="stop-color:#7D0000"/>
		</radialGradient>
		<path class="st7" d="M60.9,0"/>
		<line class="st8" x1="60.9" y1="0" x2="61" y2="102.3"/>
		<line class="st8" x1="68.2" y1="0" x2="68.3" y2="96.9"/>
	</g>
</g>
<text transform="matrix(0.9524 0 0 1 11.9467 173.1916)"><tspan x="0" y="0" class="st9 st10">Christmas trees usually</tspan><tspan x="0" y="14.8" class="st9 st10">grow for about</tspan><tspan x="68.5" y="14.8" class="st9 st11"> </tspan><tspan x="71.5" y="14.8" class="st12 st13">1</tspan><tspan x="75.4" y="14.8" class="st12 st10">5 years</tspan><tspan x="116.4" y="14.8" class="st9 st10"> </tspan><tspan x="0" y="29.3" class="st9 st10">before they are sold.</tspan></text>
</svg>
