<?xml version="1.0" encoding="utf-8"?>
<!-- Generator: Adobe Illustrator 21.0.2, SVG Export Plug-In . SVG Version: 6.00 Build 0)  -->
<svg version="1.1" id="Sign" xmlns="http://www.w3.org/2000/svg" xmlns:xlink="http://www.w3.org/1999/xlink" x="0px" y="0px"
	 viewBox="0 0 465 631" style="enable-background:new 0 0 465 631;" xml:space="preserve">
<style type="text/css">
	.st0{fill:#FFFFFF;}
	.st1{fill:url(#SVGID_1_);}
	.st2{opacity:0.2;}
	.st3{fill:#3B78F6;}
	.st4{fill:url(#SVGID_2_);}
	.st5{fill:url(#SVGID_3_);}
	.st6{fill:url(#SVGID_4_);stroke:#8E8E8E;stroke-width:0.5;stroke-miterlimit:10;}
	.st7{fill:#AFCBD3;}
	.st8{fill:#AFD6E2;}
	.st9{font-family:'Noteworthy-Light';}
	.st10{font-size:32.5948px;}
	.st11{font-family:'Noteworthy-Bold';}
	.st12{font-size:41px;}
</style>
<path class="st0" d="M395.8,262.3c0,0-6,7.7-4,21.9c2,14.2-3.5,26.2-3.5,26.2s-3,39.5-4.2,1.8c0,0,1.2-12.6-2.2-16.8s0-18.5,0-18.5
	s-5.2-24.8-16-2.2c0,0,5.8,18.2-1.2,30.2c0,0-1,6.8,1.2,11.5c0,0-6.2,2.2-4.2-22.8c0,0-8-21-3.5-19c0,0-6.9-7-0.2,14.5
	c0,0,4.2,3-1.8,20c0,0-2.8,11-3.8-20.5c0,0-3.5-14-2-15.5c0,0-2.7-1.9-2.1,1s2.2,6.9-0.1,11.5c0,0,0.3,10.6-1.7,10.4
	s-1.1-7.8-1.1-7.8s-3.2-2.1-1.1-9.9c0,0-5.8-4.5-4.1,10.1c0,0,1,13.2-3.4,17.3c0,0-1.9,1.9,0.4-7.9c0,0-3.1-11.1-2.4-21.6
	c0,0-7.5-10.9-7.5,10c0,0,2.5,15.1-1.9,21.5c0,0-1.3,1.2-0.8-3.8s-4-14.8-4-14.8s-1.3-7.1-0.7-14.9c0.7-7.8-7.2-15.1-5.3,2.2
	c0,0,0.5,4.2-1.6,9.1c0,0,1.4,16.1-0.9,16.5c0,0-1.3-10.5-2.2-10.8c-0.8-0.2-2.8-12.1-1.7-17.5c1.2-5.4-4.8-5.4-4.7,3.4
	s-2.2,14.1-2.2,14.1s2.2,12.8,1.1,15.9c-1.2,3.1-4.1,15.6-3.3,19s1.9,9.5-0.8,9.2c-2.7-0.3-1.4-8.5-1.4-8.5s-5-5.8-1.1-22.7
	c0,0-6.7-17.8-1.5-28.7c0,0-1.9-11.5-7.7,5.5c0,0,0.6,25.3-2.1,24.9c0,0-1.7,1.7-1.7-7.5c0,0-4.1-14.2-1.6-20.8s0.5-10.1-0.8-10.1
	s-4.1,6.8-4.1,6.8V258h119.4V262.3z"/>
<linearGradient id="SVGID_1_" gradientUnits="userSpaceOnUse" x1="253.1667" y1="97.4115" x2="278.5833" y2="97.4115">
	<stop  offset="0.1223" style="stop-color:#B3B3B3"/>
	<stop  offset="0.5537" style="stop-color:#FFFFFF"/>
	<stop  offset="0.8628" style="stop-color:#B3B3B3"/>
</linearGradient>
<path class="st1" d="M278.6,115.4l-0.6,0.1c-7.6,0.7-16.6,0.7-24.1-0.1l0,0l-0.8-36.6h24.7L278.6,115.4z"/>
<path class="st0" d="M221,464.6c0,0,29.6-50.2,42.8-45.1c13.2,5.1,18.6-10.5,48.9,41.5c0,0,34.3,8.1,36.8,15.3
	c2.5,7.2,23,31.2,29.5,33.7s23.3,25.5-36.8,29.5S162,547,149.5,527s24.5-49.4,35.5-50.7C196,475,218.5,468.7,221,464.6z"/>
<g id="BottomSnow" class="st2">
	<path class="st3" d="M300.3,501.7c0,0-24.3,13.7-48.7-3.3c-24.3-17-24.3-9-24.3-9v-6c0,0,6.3-5,31,15.7
		C258.3,499,294.3,493.3,300.3,501.7z"/>
	<path class="st3" d="M218,505.3c0,0-5.7,18-26,18.7C192,524,215.7,514.3,218,505.3z"/>
	<path class="st3" d="M163.7,500.7c0,0,25.7-2.6,34.7-20.6C198.3,480,174,476.7,163.7,500.7"/>
	<path class="st3" d="M330.3,533c0,0-21.7,9-35.3-6C295,527,319,535,330.3,533z"/>
	<path class="st3" d="M358,498c0,0-27-2.3-31.7-24.5C326.3,473.5,343,473,358,498z"/>
	<path class="st3" d="M269.7,465.5c-5.8-11.3,25.3-5.5,15.3-10.8c-10.6-5.7-41.7,4.7-41.7,4.7s3,5.3,14.7,14.2
		c11.7,8.8,27-6.2,27-6.2S271.6,469.2,269.7,465.5z"/>
	<path class="st3" d="M283.3,430.3c0,0-20.7-7.4-37.3,8C246,438.3,263.6,407.2,283.3,430.3z"/>
</g>
<linearGradient id="SVGID_2_" gradientUnits="userSpaceOnUse" x1="251.0442" y1="359.0455" x2="276.4608" y2="359.0455">
	<stop  offset="0.1223" style="stop-color:#B3B3B3"/>
	<stop  offset="0.5537" style="stop-color:#FFFFFF"/>
	<stop  offset="0.8628" style="stop-color:#B3B3B3"/>
</linearGradient>
<path class="st4" d="M276.5,461.5l-0.6,0.3c-7.6,3.9-16.6,3.8-24.1-0.3h0l-0.8-208h24.7L276.5,461.5z"/>
<radialGradient id="SVGID_3_" cx="263.7525" cy="187.016" r="113.4263" gradientUnits="userSpaceOnUse">
	<stop  offset="0.7206" style="stop-color:#FFFFFF"/>
	<stop  offset="0.7947" style="stop-color:#F7F7F7"/>
	<stop  offset="0.9071" style="stop-color:#E2E2E2"/>
	<stop  offset="1" style="stop-color:#CCCCCC"/>
</radialGradient>
<path class="st5" d="M393.4,262.3H134.1c-6.6,0-12-5.4-12-12V123.7c0-6.6,5.4-12,12-12h259.3c6.6,0,12,5.4,12,12v126.6
	C405.4,256.9,400,262.3,393.4,262.3z"/>
<linearGradient id="SVGID_4_" gradientUnits="userSpaceOnUse" x1="135.7525" y1="188" x2="391.7525" y2="188">
	<stop  offset="0" style="stop-color:#FFFFFF"/>
	<stop  offset="1" style="stop-color:#8DD2FF"/>
</linearGradient>
<path class="st6" d="M379.8,250.3h-232c-6.6,0-12-5.4-12-12V137.7c0-6.6,5.4-12,12-12h232c6.6,0,12,5.4,12,12v100.7
	C391.8,244.9,386.4,250.3,379.8,250.3z"/>
<g id="Snow1">
	<path class="st0" d="M113.8,111.1c0,1.8-0.2,3.6-0.4,5.3c-0.7,6.4,2.4,22,54,4.5c49.9-16.9,100,1.1,119.3,9.6c6,2.7,12.8,3,19,1
		c16.1-5.2,43.6-17.5,35.9-39.4c-2.2-6.3-9-9.8-15.4-7.7c-14.1,4.5-45.6,17.7-52.1,15.6C274.2,100,114.9,68.4,113.8,111.1z"/>
	<g id="shadow" class="st2">
		<path class="st7" d="M298.7,127c0,0,34.8-4.5,40.5-34.2C339.2,92.8,348.5,133.8,298.7,127z"/>
		<path class="st8" d="M318,90.2c0,0-33.2,26.3-68.5,8C249.5,98.2,299.7,102.7,318,90.2z"/>
		<path class="st8" d="M134.2,94.7c0,0,25,12.3,59.5-1.2C193.7,93.5,143.8,86,134.2,94.7z"/>
		<path class="st8" d="M119.5,102c0,0-11.2,23.3,15.7,24.2C135.2,126.2,102.8,129.7,119.5,102z"/>
		<path class="st8" d="M186,119l57-0.8C243,118.2,208.7,107,186,119z"/>
	</g>
</g>
<path class="st0" d="M265,53.5c0,0,19.5,3.8,14.8,29.3c0,0-1.3,1.5-4,1c0,0-1.5,9-2.5,0.1c0,0-3.2,13.9-4.8-0.1c0,0-1.9,8.8-2.6,6.3
	s-0.9-6.3-0.9-6.3s-3,2.7-3.8,2.2c-0.8-0.5-1.7-2.2-1.7-2.2s-0.3,8-1.5,8s-2.2-7.7-2.2-8s-4.7,1.2-5.4,0S245.8,57.2,265,53.5z"/>
<path class="st0" d="M533,585"/>
<text transform="matrix(0.6331 0 0 1 141.5078 181.7383)" class="st9 st10">The Worlds </text>
<text transform="matrix(0.6 0 0 1 235.5771 181.7383)" class="st11 st12">Tallest</text>
<text transform="matrix(0.6331 0 0 1 307.6543 181.7383)" class="st9 st10"> Snowman </text>
<text transform="matrix(0.6331 0 0 1 141.5078 220.8521)" class="st9 st10">Was 113 Feet Tall</text>
</svg>
