<?xml version="1.0" encoding="utf-8"?>
<!-- Generator: Adobe Illustrator 21.0.2, SVG Export Plug-In . SVG Version: 6.00 Build 0)  -->
<svg version="1.1" id="Layer_1" xmlns="http://www.w3.org/2000/svg" xmlns:xlink="http://www.w3.org/1999/xlink" x="0px" y="0px"
	 viewBox="0 0 298.2 137.1" style="enable-background:new 0 0 298.2 137.1;" xml:space="preserve">
<style type="text/css">
	.st0{opacity:0.8;}
	.st1{fill:none;stroke:#000000;stroke-miterlimit:10;}
</style>
<g id="SantasSleigh" class="st0">
	<g>
		<path id="Reindeer_31_" d="M124.6,108c0,0-2.6,3.3-1.3,4.3c1.3,1,2.8,2,6.8-2.3c0,0,7.6,3,9.8-4.2c0,0,3.8,2.7,9.8-3.5
			c0,0,7.8-5.3,3.7,3.9c0,0-0.7-0.8-1.2-0.7c-0.5,0.2-1.1,2.8-0.9,4.7c0,0-0.4,1.1,1.9-0.5c0.1,0.3,0.2,0.5,0.2,0.8
			c0,0,0.7,0.7,2.1-1.8c0,0,4.7-5.1,2.7-11.4c0,0-0.6-1.6-6.1-1.8c-0.1-0.6-0.2-1.2-0.2-1.8c0,0,2.3,2.3,4.8,1.6c0,0-2.1-2.3-1.8-3
			c0,0,1.1,2.4,2.6,2c1.5-0.4,4-0.9,4.8-5.3c0,0,1.4-1,1-2c0,0,0.2-2.5-2.4-0.7c0,0-1.8-1.1-3.2-0.1c0,0-1-2.6-2.6-2.7
			c0,0-0.5-2.6,0.1-3.1c0.5-0.5,2-1.7,2.7-2.5c0.7-0.8-0.3-2.7-0.3-2.7c0,0-1.4,3-2.3,3.3c-0.9,0.3-0.9,0.3-0.9,0.3
			c0,0,1-2.5,0.5-2.8c-0.5-0.3-1.5,0.6-2,2.3c0,0-1.1,0.6-1.5,0.4c0,0,1.5-2.5,0.5-2.4c-1,0.2-2,2-2.3,2c-0.3,0-2.1-1.3-2-1.8
			c0.1-0.5-0.2-1.2-0.7-1.3c-0.5-0.1-0.9,0.9-1,1.2c-0.1,0.3-1.6,0.3-1.9-4.2c0,0-1-3.4-2.1,1.3c0,0-1.3,4.2,5.2,5.7
			c0,0,2.1,0.2,2.8,0.9c0.7,0.7,1.4,3.3,1.4,3.3c-0.2-0.1-0.5-0.1-0.7-0.2c0,0-1.4-2-5.5-2.2c0,0-0.1,5.9,4.4,6.3
			c-0.1,0.3-0.1,0.6-0.2,0.9c0,0-1.3,4.6-2.3,5c-1.1,0.4-2.2,3.3-12.3,0.3c0,0-3.2,0.3-4,1.3c0,0,0.1-7.8-8-6.8c0,0,3.3,0.9,2.6,4.3
			c0,0-1.6,3.8,3.7,4c0,0-3.3,7.4,0.6,10.2c0,0-0.8,0-1.5-0.3c0,0-0.2,2.9-0.9,2.9C126.7,109.2,124.6,108,124.6,108z"/>
		<path id="Sleigh_7_" d="M107.1,104.9c-4.6-6.8-8.2-5.1-8.2-5.1c-0.3,1-0.6,2-0.8,3c0,0,13.3,4.2,5.2,15.3c0-0.1,2.7,1.3-14.5,4.6
			c-0.6-2-1.1-4-1.7-6c2.5-0.5,5-1,7.4-1.6c0,0,2.7-0.5,0.6-6.3c-2.5-3.4-4.9-6.8-7.3-10.2c0,0,5.2-3.1,4.4-5
			c-0.8-1.8-7.7,0.7-9.8,6.5c0,0-2.5-1.5-3.3-1.3c-0.8,0.1-2.3,0.6-2.3,0.6c0,0,0.7-2.3-1-3.4c0,0,3.4,1.7,4.4-0.8
			c0,0,5.8,0.3,5.1-3.2c-0.7-3.5-6-0.2-6-0.2c0,0-0.2-2.5-4.2-0.8c-0.1-0.4-0.2-0.7-0.3-1.1c0,0,2.4-0.1,2.8-0.5
			c0.4-0.4-0.1-2.3-0.1-2.3c0,0,4.3-0.8,2.7-4.3C78.5,79,75.3,84,75.3,84c0,0-3.1-1.8-3.5,1.1c-1.2,0.2-2.4,0.5-3.5,0.7
			c0,0-2.1-2.1-2.5-2.3c-0.3-0.2,2.5,1.1,3.5-1.9c0,0-2.5,3.2-5.9-2.2c-0.1-0.4-0.3-0.9-0.4-1.3c0,0,0.5-1.7-0.7-2.5
			c-0.9,0.1-1.8,0.3-2.7,0.4c-0.1-0.4-0.2-0.8-0.3-1.2c-0.3,0-0.6,0.1-0.9,0.1c-0.1-0.5-0.3-1-0.4-1.5c0.4,0.1,0.8,0.1,1.2,0.2
			c0,0-0.4-2.3-1.2-2.2c-0.8,0.1-6.2-1.4-11.3,0.1c0,0-2.1-0.3-2.9-1.6c0,0-0.7-1-3.4-0.7c0,0-0.8-3.7-4.3-1.5c0,0-2,2.3,1.3,3.8
			c0,0,2.4,1.3,3.1-0.8c0-0.1,0-0.2,0.1-0.3c0,0,1-0.2,2.6,1.9c1.6,2.2,3.1,2.1,3.9,1.9c0,0,1.7,2.9,2.8,3.5
			c1.1,0.5,3.2,9.6,2.8,10.4c-0.4,0.8-0.8,3.3,0.9,8.4c0-0.1-23.8-20.8-53.4-5.1c0,0.1,13.1-0.4,16.7,5.3c3.6,5.8,9.6,26,17.9,27.5
			c0,0,2.6,0.9,7.3,0.1c0.5,1.8,1.1,3.7,1.6,5.5c-7.8,0.9-15.6,1.5-23.3,2c0.3,1.1,0.6,2.2,0.9,3.2c27.1-1.7,54.7-5.9,82.5-12.5
			C103.6,122.5,114.3,115.5,107.1,104.9z M63.4,127.4c-5.4,0.8-10.7,1.5-16.1,2.1c-0.5-1.8-1-3.6-1.5-5.4c5.3-0.6,10.7-1.3,16.1-2.1
			C62.4,123.9,62.9,125.7,63.4,127.4z M84.6,123.8c-4.8,0.9-9.7,1.7-14.5,2.5c-0.5-1.8-1-3.5-1.5-5.3c4.8-0.7,9.6-1.5,14.5-2.4
			C83.6,120.3,84.1,122.1,84.6,123.8z"/>
		<path id="Reindeer_30_" d="M169.4,93.7c0,0-2.6,3.5-1.3,4.4c1.3,0.9,2.8,1.7,6.8-3c0,0,7.6,2.3,9.8-5.1c0,0,3.8,2.4,9.8-4.4
			c0,0,7.7-6.1,3.7,3.5c0,0-0.7-0.8-1.2-0.6c-0.5,0.2-1.1,2.9-0.9,4.8c0,0-0.4,1.2,1.9-0.7c0.1,0.3,0.2,0.5,0.2,0.8
			c0,0,0.7,0.6,2.1-2c0,0,4.6-5.6,2.7-11.6c0,0-0.6-1.6-6.1-1.3c-0.1-0.6-0.2-1.2-0.2-1.8c0,0,2.3,2.1,4.8,1.2c0,0-2.1-2.1-1.8-2.8
			c0,0,1.1,2.3,2.5,1.8c1.4-0.6,3.9-1.3,4.8-5.7c0,0,1.4-1.1,1-2.1c0,0,0.2-2.5-2.3-0.5c0,0-1.8-1-3.2,0.2c0,0-1-2.5-2.5-2.4
			c0,0-0.5-2.6,0.1-3.1c0.5-0.5,2-1.9,2.7-2.7c0.7-0.9-0.3-2.7-0.3-2.7c0,0-1.4,3.2-2.3,3.5c-0.9,0.4-0.9,0.4-0.9,0.4
			c0,0,1-2.6,0.5-2.9c-0.5-0.3-1.5,0.7-2,2.4c0,0-1.1,0.7-1.5,0.6c0,0,1.5-2.7,0.5-2.4c-1,0.3-2,2.2-2.3,2.3c-0.3,0-2.1-1.1-2-1.6
			c0.1-0.5-0.2-1.2-0.7-1.2c-0.5,0-0.9,1-1,1.3c-0.1,0.3-1.6,0.5-1.9-4c0,0-1-3.3-2.1,1.5c0,0-1.3,4.3,5.1,5.3c0,0,2.1,0,2.8,0.6
			c0.7,0.6,1.4,3.2,1.4,3.2c-0.2-0.1-0.5-0.1-0.7-0.2c0,0-1.4-1.9-5.5-1.7c0,0-0.1,5.9,4.4,5.9c-0.1,0.3-0.1,0.6-0.2,0.9
			c0,0-1.3,4.7-2.3,5.2c-1.1,0.5-2.2,3.5-12.3,1.4c0,0-3.2,0.6-4,1.7c0,0,0.1-7.8-8-6c0,0,3.3,0.6,2.6,4.1c0,0-1.6,3.9,3.7,3.6
			c0,0-3.3,7.7,0.6,10.1c0,0-0.8,0.1-1.5-0.1c0,0-0.2,2.9-0.9,3C171.5,94.6,169.4,93.7,169.4,93.7z"/>
		<path id="Reindeer_29_" d="M214.5,72c0,0-2.6,3.8-1.3,4.5c1.3,0.8,2.7,1.4,6.8-3.6c0,0,7.6,1.6,9.7-6c0,0,3.7,2,9.7-5.3
			c0,0,7.7-6.8,3.7,3.2c0,0-0.7-0.7-1.2-0.5c-0.5,0.3-1,3-0.9,4.8c0,0-0.4,1.2,1.9-0.9c0.1,0.2,0.1,0.5,0.2,0.7c0,0,0.6,0.5,2-2.2
			c0,0,4.6-6,2.7-11.9c0,0-0.6-1.5-6-0.7c-0.1-0.6-0.2-1.2-0.2-1.8c0,0,2.3,1.8,4.7,0.7c0,0-2.1-1.9-1.8-2.6c0,0,1.1,2.2,2.5,1.5
			c1.4-0.7,3.9-1.6,4.7-6.2c0,0,1.4-1.2,1-2.2c0,0,0.2-2.5-2.3-0.2c0,0-1.8-0.8-3.2,0.5c0,0-1-2.4-2.5-2.2c0,0-0.5-2.5,0.1-3.1
			c0.5-0.6,2-2.1,2.7-3c0.7-0.9-0.3-2.7-0.3-2.7c0,0-1.4,3.3-2.2,3.8c-0.9,0.5-0.9,0.4-0.9,0.5c0,0,1-2.7,0.5-2.9
			c-0.5-0.2-1.5,0.8-2,2.6c0,0-1.1,0.9-1.5,0.7c0,0,1.5-2.8,0.5-2.4c-1,0.4-2,2.4-2.2,2.5c-0.3,0-2-0.9-2-1.4
			c0.1-0.5-0.2-1.2-0.7-1.1c-0.5,0-0.9,1.1-0.9,1.4c-0.1,0.3-1.6,0.6-1.9-3.9c0,0-1-3.2-2,1.7c0,0-1.3,4.4,5.1,4.8
			c0,0,2-0.2,2.7,0.3c0.7,0.5,1.4,3.1,1.4,3.1c-0.2,0-0.5-0.1-0.7-0.1c0,0-1.3-1.8-5.4-1.2c0,0-0.1,5.9,4.4,5.5
			c-0.1,0.3-0.1,0.6-0.2,0.9c0,0-1.2,4.8-2.3,5.4c-1.1,0.6-2.1,3.7-12.2,2.6c0,0-3.2,0.9-4,2c0,0,0.1-7.8-7.9-5.3
			c0,0,3.3,0.3,2.6,3.8c0,0-1.6,4.1,3.6,3.3c0,0-3.3,8,0.6,10.1c0,0-0.8,0.2-1.4,0c0,0-0.2,2.9-0.9,3.1
			C216.6,72.7,214.5,72,214.5,72z"/>
		<path id="Reindeer_28_" d="M260.5,48.1c0,0-2.6,4-1.3,4.7c1.3,0.7,2.7,1.2,6.7-4.3c0,0,7.5,0.9,9.5-7c0,0,3.7,1.7,9.5-6.3
			c0,0,7.5-7.5,3.6,2.8c0,0-0.7-0.6-1.1-0.3c-0.5,0.3-1,3.1-0.9,4.9c0,0-0.4,1.2,1.9-1.1c0.1,0.2,0.1,0.5,0.2,0.7c0,0,0.6,0.5,2-2.4
			c0,0,4.5-6.5,2.6-12.1c0,0-0.6-1.5-5.9-0.1c-0.1-0.6-0.2-1.2-0.2-1.7c0,0,2.3,1.6,4.6,0.2c0,0-2-1.7-1.7-2.5c0,0,1.1,2.1,2.5,1.3
			c1.4-0.8,3.8-2,4.7-6.6c0,0,1.3-1.3,1-2.3c0,0,0.2-2.5-2.3,0c0,0-1.8-0.6-3.1,0.8c0,0-1-2.3-2.5-1.9c0,0-0.4-2.5,0.1-3.1
			c0.5-0.6,2-2.2,2.6-3.3c0.7-1-0.3-2.7-0.3-2.7c0,0-1.3,3.4-2.2,4c-0.8,0.5-0.9,0.5-0.9,0.5c0,0,0.9-2.8,0.5-3
			c-0.5-0.2-1.4,1-1.9,2.8c0,0-1.1,1-1.5,0.9c0,0,1.4-2.9,0.5-2.5c-0.9,0.4-2,2.6-2.2,2.7c-0.3,0.1-2-0.7-1.9-1.2
			c0.1-0.5-0.2-1.1-0.7-1.1c-0.5,0.1-0.8,1.1-0.9,1.5c-0.1,0.3-1.6,0.8-1.8-3.7c0,0-1-3.1-2,1.9c0,0-1.3,4.5,5,4.3
			c0,0,2-0.4,2.7,0.1c0.7,0.5,1.4,2.9,1.4,2.9c-0.2,0-0.5,0-0.7,0c0,0-1.3-1.7-5.3-0.6c0,0-0.1,5.9,4.3,5.1
			c-0.1,0.3-0.1,0.6-0.2,0.9c0,0-1.2,4.9-2.3,5.7c-1,0.7-2.1,3.9-12,3.8c0,0-3.2,1.2-3.9,2.4c0,0,0.1-7.8-7.8-4.5c0,0,3.2,0,2.6,3.6
			c0,0-1.5,4.2,3.6,2.9c0,0-3.3,8.3,0.6,10c0,0-0.8,0.3-1.4,0.1c0,0-0.2,3-0.9,3.2C262.6,48.6,260.5,48.1,260.5,48.1z"/>
		<g id="reigns_14_">
			<path id="reign2_7_" class="st1" d="M85.1,91.8c0,0,8.7-1.7,15.5-3.2c5.1-1.1,10.6-0.5,15.5,1.9c4.3,2,8.6,4,13,6
				c0,0.6,45.8,1.9,51.7-12.2c0,0.5,42-15.1,44.1-22c0.1,0.6,44.8-15.1,44.9-26.9"/>
			<path id="reigns_15_" class="st1" d="M78.9,83.3c0,0,11.4-1.4,19.1-2.7c4.3-0.7,8.8-0.1,13,1.7c5.4,2.3,10.9,4.5,16.4,6.7
				c0,0.2,31.3,13.1,53.6-7.6c0,0.6,43.8-14,42-22.5c0.1,0.7,46.8-12.6,46.9-23.6"/>
		</g>
	</g>
</g>
</svg>
