<?xml version="1.0" encoding="utf-8"?>
<!-- Generator: Adobe Illustrator 21.0.2, SVG Export Plug-In . SVG Version: 6.00 Build 0)  -->
<svg version="1.1" id="Layer_1" xmlns="http://www.w3.org/2000/svg" xmlns:xlink="http://www.w3.org/1999/xlink" x="0px" y="0px"
	 viewBox="0 0 187.1 359.4" style="enable-background:new 0 0 187.1 359.4;" xml:space="preserve">
<style type="text/css">
	.st0{fill:url(#SnowManHead_1_);}
	.st1{fill:url(#SnowManLowerBody_1_);}
	.st2{fill:#001234;}
	.st3{fill:#0A1C1B;}
	.st4{fill:url(#nose_1_);}
	.st5{fill:url(#eye_1_);}
	.st6{fill:#003257;fill-opacity:0.5;}
</style>
<g id="snowman">
	
		<linearGradient id="SnowManHead_1_" gradientUnits="userSpaceOnUse" x1="47.0915" y1="136.5726" x2="167.3138" y2="136.5726" gradientTransform="matrix(0.9948 -0.1019 0.1019 0.9948 -14.873 8.5225)">
		<stop  offset="0.3124" style="stop-color:#004595"/>
		<stop  offset="0.4757" style="stop-color:#024796"/>
		<stop  offset="0.5622" style="stop-color:#0A4D98"/>
		<stop  offset="0.6307" style="stop-color:#18589D"/>
		<stop  offset="0.6897" style="stop-color:#2B67A3"/>
		<stop  offset="0.7427" style="stop-color:#447AAB"/>
		<stop  offset="0.7913" style="stop-color:#6292B4"/>
		<stop  offset="0.8357" style="stop-color:#86AEC0"/>
		<stop  offset="0.8744" style="stop-color:#ACCCCC"/>
	</linearGradient>
	<path id="SnowManHead" class="st0" d="M165.5,127.3c3.2,31.6-20.9,60-53.9,63.4s-62.4-19.5-65.7-51.2c-3.2-31.6,20.9-60,53.9-63.4
		S162.2,95.7,165.5,127.3z"/>
	<linearGradient id="SnowManLowerBody_1_" gradientUnits="userSpaceOnUse" x1="1.1355" y1="254.2827" x2="187.063" y2="254.2827">
		<stop  offset="0.3124" style="stop-color:#004595"/>
		<stop  offset="0.4757" style="stop-color:#024796"/>
		<stop  offset="0.5622" style="stop-color:#0A4D98"/>
		<stop  offset="0.6307" style="stop-color:#18589D"/>
		<stop  offset="0.6897" style="stop-color:#2B67A3"/>
		<stop  offset="0.7427" style="stop-color:#447AAB"/>
		<stop  offset="0.7913" style="stop-color:#6292B4"/>
		<stop  offset="0.8357" style="stop-color:#86AEC0"/>
		<stop  offset="0.8744" style="stop-color:#ACCCCC"/>
	</linearGradient>
	<ellipse id="SnowManLowerBody" class="st1" cx="94.1" cy="254.3" rx="93" ry="105.1"/>
	<path id="scarf" class="st2" d="M155,177.7c0,0-20.5,24.3-75.2,14.8c0,0-10.3,52.1,16.2,76.4c0,0,6.8,30.4-0.9,40.8
		c0,0-15.4-9.5-39.3,0c0,0,8.5-37.3,0-52.9c0,0-9.4-30.4-3.4-37.3c0,0-9.4,19.1-6.8,31.2c0,0-12.8-21.7-25.6-17.4
		c0,0-2.6-21.7,8.5-29.5c0,0,15.4-9.5,17.1-18.2c0,0-12.8-7.8-12-16.5c0,0,15.4-13,11.1-23.4c0,0,16.2,11.3,43,2.2
		c0,0,22-18.3,68.1,14.3"/>
	<path id="hat" class="st3" d="M47.3,102.6c0,0-24.7-20-28.7-30.6c0,0-28,0.7-15.3-25.3c0,0,29.3-44,63.3-45.3c0,0,15.3-6.7,18.7,10
		c0,0-4.7,2,0,14.7s11.3,33.3,11.3,36c0,0,4.7-1.3,9.3,0c0,0,30-23.3,42.7-8c0,0-17.3-0.7-26,20.7c0,0-13.3,23.3-28.7,28
		c0,0-24.7,37.4-55.3,28.7c0,0-12,0.7-14.7,4H12.6C12.6,135.3,40.6,122.6,47.3,102.6z"/>
	<linearGradient id="nose_1_" gradientUnits="userSpaceOnUse" x1="155.8763" y1="119.8802" x2="186.5787" y2="102.1541">
		<stop  offset="0.1835" style="stop-color:#7C4700"/>
		<stop  offset="0.2664" style="stop-color:#884E08"/>
		<stop  offset="0.4165" style="stop-color:#A8621D"/>
		<stop  offset="0.6152" style="stop-color:#DC823E"/>
		<stop  offset="0.7388" style="stop-color:#FF9855"/>
	</linearGradient>
	<path id="nose" class="st4" d="M161.4,129.4c0,0,24-22.8,22.8-31.5c0,0-24.2,9.5-27.8,9C156.4,106.9,163.1,126.9,161.4,129.4z"/>
	
		<linearGradient id="eye_1_" gradientUnits="userSpaceOnUse" x1="148.1293" y1="97.5397" x2="154.1814" y2="94.0456" gradientTransform="matrix(0.9985 -5.424396e-02 5.424396e-02 0.9985 -5.9273 6.6178)">
		<stop  offset="0.6255" style="stop-color:#010094"/>
		<stop  offset="0.6487" style="stop-color:#0D0C99"/>
		<stop  offset="0.6906" style="stop-color:#2D2CA7"/>
		<stop  offset="0.7466" style="stop-color:#6160BC"/>
		<stop  offset="0.8145" style="stop-color:#A9A8DB"/>
		<stop  offset="0.8887" style="stop-color:#FFFFFF"/>
	</linearGradient>
	<path id="eye" class="st5" d="M142.2,88.2l11.8,14.4C154,102.6,159.5,88.3,142.2,88.2z"/>
	<path id="scarfshadow" class="st6" d="M155.8,162.1c0-2.6,0,8.1-0.9,15.6c0,0-9.1,9.3-23.2,13.1c-13,3.6-22.9-3.6-23.6-3.2
		c-2.2,1,12-5.5,15-6s9.8,0.2,12.5-0.2s13.8-8.8,15.5-8.8s-6.8,0.8-15.5,6c0,0-10.5,0-11.5-1.2c0,0,8.5-3.8,10.5-4s-11.8-1-12.5-3
		s-4.8,3-12.5,1l9.8-5.2v-3c0,0-13.2,3.5-17,2.2s-2.5-5.2,0-5.5s14.2,0,14.2,0l-1.8-2.2c0,0,18.2,3,18.2,4s-9,2-9,2s17.8,3,18.5,1.8
		s-8.8-13.5-34-18c0,0,20.8,0,23,2.2C131.6,149.7,151.3,158.5,155.8,162.1z"/>
	<path id="scarfshadow2" class="st6" d="M78.7,200.3c0,0-7.2,47.2,17.4,68.6c0,0,1.6,13.7,1.9,22.9c0.2,8.6-2.9,19.3-3.8,17.2
		c0,0,4.5-29.8-8.8-46.2c0,0-1.1,12.2-0.5,17.5c0,0-6.4-23.1-8.5-23.1s-10.6-12.5-4.2-26.4c0,0-4.2-18.4-0.4-27c0,0-3.5-2.6-5.2,0
		c0,0-2.8,11.1-3.9,0.8c0,0-10.5-5.6-1.6-6S77.9,197.6,78.7,200.3z"/>
</g>
</svg>
